#!OML:ASF F:\VICON\USERDATA\INSTALL\rory3\rory3.ASF
:FULLY-SPECIFIED
:DEGREES
824
root -1.47644 18.1843 1.39122 -0.46434 2.50472 360.625
lowerback 9.34824 0.104857 -0.343841
upperback 0.294914 0.136021 0.641005
thorax -4.94098 0.0826229 0.842502
lowerneck -19.6744 -6.34209 -13.0893
upperneck 30.979 -7.86818 9.22929
head 15.0278 -3.67249 4.60794
rclavicle 5.889e-015 -1.31198e-014
rhumerus -34.0088 -9.47571 -82.9258
rradius 32.2803
rwrist 6.29987
rhand -15.9155 8.43097
rfingers 7.12502
rthumb 10.2817 -21.2977
lclavicle 5.889e-015 -1.31198e-014
lhumerus -37.6009 1.7055 85.6687
lradius 34.5171
lwrist -4.87939
lhand -18.6088 23.7644
lfingers 7.12502
lthumb 7.68276 53.6049
rfemur -4.46153 -5.07148 23.9627
rtibia 21.4428
rfoot -10.9803 -14.4039
rtoes 4.12488
lfemur 0.419589 -3.508 -19.3726
ltibia 9.71955
lfoot -4.96544 0.156282
ltoes -8.91503
825
root -1.47319 18.1838 1.39123 -0.474003 2.56948 360.601
lowerback 9.24613 0.0690588 -0.373786
upperback 0.304242 0.0862644 0.661319
thorax -4.87313 0.0587268 0.887043
lowerneck -19.7032 -6.35793 -13.0092
upperneck 31.0143 -7.90188 9.17573
head 15.0482 -3.68415 4.56523
rclavicle 1.13059e-014 -1.19271e-014
rhumerus -33.9991 -9.79311 -82.9355
rradius 32.2757
rwrist 5.99405
rhand -15.8899 8.28037
rfingers 7.12502
rthumb 10.3064 -21.4471
lclavicle 1.13059e-014 -1.19271e-014
lhumerus -37.6866 1.87528 85.6433
lradius 34.3857
lwrist -5.34745
lhand -18.6049 23.4144
lfingers 7.12502
lthumb 7.68653 53.2547
rfemur -4.45334 -5.0333 23.9876
rtibia 21.4654
rfoot -10.9344 -14.4215
rtoes 4.68619
lfemur 0.547211 -3.57314 -19.3309
ltibia 9.41991
lfoot -4.82225 0.110842
ltoes -9.37444
826
root -1.46998 18.1843 1.39213 -0.540958 2.60491 360.573
lowerback 9.18744 0.0431368 -0.401446
upperback 0.348156 0.0499018 0.684056
thorax -4.7937 0.0412278 0.930894
lowerneck -19.7597 -6.41421 -12.9731
upperneck 31.0095 -7.99397 9.17903
head 15.0711 -3.7171 4.5409
rclavicle -1.31943e-014 8.74653e-015
rhumerus -33.9958 -10.0266 -82.9643
rradius 32.3359
rwrist 5.68492
rhand -15.7159 8.34848
rfingers 7.12502
rthumb 10.4742 -21.3706
lclavicle -1.31943e-014 8.74653e-015
lhumerus -37.6875 2.04399 85.6026
lradius 34.2567
lwrist -5.95843
lhand -18.5311 23.0321
lfingers 7.12502
lthumb 7.75776 52.8698
rfemur -4.3544 -4.99292 24.0058
rtibia 21.4404
rfoot -10.9393 -14.4507
rtoes 5.15276
lfemur 0.704484 -3.60962 -19.3009
ltibia 9.23789
lfoot -4.72918 0.111432
ltoes -9.20013
827
root -1.46322 18.1834 1.39477 -0.622428 2.62228 360.595
lowerback 9.14911 0.0124524 -0.425771
upperback 0.368274 0.00685946 0.691215
thorax -4.75036 0.0203498 0.957547
lowerneck -19.7305 -6.43758 -13.0796
upperneck 31.0031 -8.04105 9.30819
head 15.0823 -3.73375 4.60602
rclavicle 2.95692e-015 5.1684e-015
rhumerus -34.1176 -10.1627 -82.9973
rradius 32.4211
rwrist 5.44107
rhand -15.6365 8.25957
rfingers 7.12502
rthumb 10.5508 -21.4556
lclavicle 2.95692e-015 5.1684e-015
lhumerus -37.5786 2.3277 85.5072
lradius 34.0377
lwrist -6.91619
lhand -17.7808 23.6845
lfingers 7.12502
lthumb 8.48188 53.4941
rfemur -4.20132 -5.03694 23.9344
rtibia 21.3587
rfoot -10.9324 -14.3857
rtoes 5.36288
lfemur 0.847853 -3.62754 -19.3583
ltibia 9.18319
lfoot -4.74559 0.157612
ltoes -8.46923
828
root -1.45415 18.184 1.3988 -0.684809 2.59187 360.621
lowerback 9.0659 -0.0215521 -0.438651
upperback 0.373571 -0.0395038 0.694443
thorax -4.69722 -0.00248448 0.973925
lowerneck -19.6708 -6.44404 -13.2358
upperneck 31.0025 -8.05974 9.46603
head 15.0896 -3.74163 4.69867
rclavicle 1.86361e-015 -5.56597e-015
rhumerus -34.23 -10.1467 -83.0858
rradius 32.4494
rwrist 5.32003
rhand -15.6651 8.20841
rfingers 7.12502
rthumb 10.5232 -21.5082
lclavicle 1.86361e-015 -5.56597e-015
lhumerus -37.5644 2.59874 85.389
lradius 34.0157
lwrist -7.98555
lhand -16.4997 25.2381
lfingers 7.12502
lthumb 9.71802 54.9939
rfemur -4.05213 -5.09061 23.8427
rtibia 21.2482
rfoot -10.8684 -14.255
rtoes 5.11802
lfemur 1.0001 -3.59708 -19.4438
ltibia 9.11507
lfoot -4.76186 0.217235
ltoes -8.04598
829
root -1.44721 18.1886 1.40051 -0.723128 2.55843 360.625
lowerback 8.99266 -0.0457175 -0.443454
upperback 0.391237 -0.0718345 0.700653
thorax -4.63703 -0.0186117 0.98693
lowerneck -19.8427 -6.50621 -13.2794
upperneck 31.0901 -8.12753 9.48301
head 15.1839 -3.77034 4.70196
rclavicle -1.07095e-014 1.98785e-015
rhumerus -34.249 -10.0113 -83.2538
rradius 32.4649
rwrist 5.20389
rhand -15.8679 8.28064
rfingers 7.12502
rthumb 10.3276 -21.4458
lclavicle -1.07095e-014 1.98785e-015
lhumerus -37.5167 2.73373 85.3423
lradius 33.9631
lwrist -8.52782
lhand -15.877 25.5473
lfingers 7.12502
lthumb 10.3189 55.2741
rfemur -3.94778 -5.12335 23.7972
rtibia 21.1338
rfoot -10.7961 -14.1643
rtoes 4.97581
lfemur 1.12673 -3.56361 -19.4909
ltibia 9.01138
lfoot -4.74357 0.270906
ltoes -7.86314
830
root -1.43942 18.1921 1.40074 -0.731212 2.54015 360.604
lowerback 8.91391 -0.0607149 -0.391145
upperback 0.407894 -0.086875 0.691997
thorax -4.57526 -0.0275529 0.950027
lowerneck -19.9796 -6.55982 -13.2735
upperneck 31.1356 -8.19041 9.46854
head 15.2452 -3.79531 4.68226
rclavicle 5.76476e-015 2.78299e-015
rhumerus -34.2869 -9.86161 -83.4446
rradius 32.5238
rwrist 5.0278
rhand -15.8392 8.29722
rfingers 7.12502
rthumb 10.3553 -21.4278
lclavicle 5.76476e-015 2.78299e-015
lhumerus -37.3762 2.59223 85.3894
lradius 33.7802
lwrist -8.50555
lhand -16.0257 24.8255
lfingers 7.12502
lthumb 10.1753 54.5594
rfemur -3.88745 -5.08744 23.7855
rtibia 21.0394
rfoot -10.7813 -14.1509
rtoes 5.12776
lfemur 1.21074 -3.54532 -19.508
ltibia 8.87844
lfoot -4.70337 0.320622
ltoes -7.92462
